<?xml version="1.0" encoding="utf-8"?>
<!-- Generator: Adobe Illustrator 18.1.1, SVG Export Plug-In . SVG Version: 6.00 Build 0)  -->
<!DOCTYPE svg PUBLIC "-//W3C//DTD SVG 1.1//EN" "http://www.w3.org/Graphics/SVG/1.1/DTD/svg11.dtd">
<svg version="1.1" id="Layer_1" xmlns="http://www.w3.org/2000/svg" xmlns:xlink="http://www.w3.org/1999/xlink" x="0px" y="0px"
	 viewBox="0 0 100 60" enable-background="new 0 0 100 60" xml:space="preserve">
<g>
	<g>
		<path fill="#FF3333" d="M98.4,48.1L98.4,48.1C98.4,48.1,98.4,48.1,98.4,48.1z"/>
	</g>
	<g>
		<path fill="#FF3333" d="M98.2,47.9C98.2,48,98.3,48,98.2,47.9C98.3,48,98.3,48,98.2,47.9z"/>
	</g>
	<g>
		<path fill="#FF3333" d="M98.2,47.9L98.2,47.9L98.2,47.9z"/>
	</g>
	<g>
		<path fill="#FF3333" d="M97.9,47.7c0.1,0.1,0.2,0.2,0.2,0.2S98,47.8,97.9,47.7z"/>
	</g>
	<g>
		<path fill="#FF3333" d="M97.9,47.7L97.9,47.7L97.9,47.7z"/>
	</g>
	<g>
		<path fill="#FF3333" d="M97.9,47.7L97.9,47.7L97.9,47.7z"/>
	</g>
	<g>
		<path fill="#FF3333" d="M98.4,48.2L98.4,48.2L98.4,48.2z"/>
	</g>
	<g>
		<path fill="#FF3333" d="M72.6,0.9c0.1,0,0.3,0,0.4,0H73c0.5,0.1,0.9,0.2,1.5,0.3c1,0.3,2,0.5,3,1c1.3,0.5,2.5,1.3,3.5,2
			c1.3,0.9,2.5,2.1,3.4,3.3c1.1,1.5,1.9,3.1,2.4,5c0.3,1,0.5,2.1,0.6,3.3c0,0.4,0.1,0.8,0.1,1.2c0,1-0.2,2.1-0.5,3.3
			c-0.4,1.9-1.1,3.6-1.9,5.3c-1.1,2-2.6,3.7-4.5,5L79.8,31l0.8,0.7l0.5,0.5l0.7,0.7l1.4,1.4l1.6,1.6l1.6,1.6l1.7,1.7l2,2l1.8,1.8
			l1.6,1.6l1.5,1.5l1,1c0.1,0.1,0.3,0.2,0.4,0.4c0.2,0.2,0.5,0.5,0.6,0.6c0.6,0.6,1.2,1.5,1.5,2.4c0.7,2.1,0.2,4.5-1.3,6.2
			c-1.2,1.3-2.9,2.1-4.6,2.1c-0.4,0-0.8,0-1.2-0.1c-1.2-0.3-2.3-0.8-3.2-1.6l-0.2-0.2l0-0.1l-0.5-0.5l-0.9-0.9l-1.6-1.6l-0.8-0.8
			l-1.7-1.7L81,49.7l-0.5-0.5L77.3,46l-2-2l-1.6-1.5L72,40.8l-1.9-1.9l-1.6-1.6L67.2,36l-2-2l-0.5-0.5l-0.4-0.3l-1-1l-0.5,1.4v0.1
			l-0.3,0.7l-0.5,1.4l-0.8,2.5l-0.5,1.5l-0.5,1.7l-1.1,3.3l-1.5,4.7l-0.4,1L56.5,53l-0.3,0.9c-0.1,0.2-0.1,0.3-0.2,0.5
			c-0.1,0.3-0.2,0.5-0.3,0.7c-0.8,2-2.6,3.4-4.8,3.8c-0.3,0-0.5,0-0.9,0c-1,0-1.9-0.2-2.7-0.6c-1.1-0.5-2-1.4-2.6-2.4
			c-0.3-0.5-0.5-0.9-0.7-1.4c-0.1-0.2-0.2-0.4-0.3-0.6l-1.4-2.8l-0.5-1l-1.2-2.4l-1.2-2.4l-0.9-1.8l-1.1-2.1l-0.7-1.4l-0.2-0.3
			l-0.8-1.5L34.8,40l-1,2.1l-1.5,3.1l-0.5,1.1l-0.9,1.9l-1.4,2.8l-0.7,1.5l-1.1,2.2L27.5,55c-0.4,0.7-0.7,1.5-1.2,2.1
			c-0.9,1.1-2.1,1.8-3.5,2.1c-0.5,0.1-0.9,0.2-1.4,0.2c-0.9,0-1.8-0.2-2.6-0.5c-1.2-0.5-2.2-1.5-2.8-2.6c-0.3-0.5-0.4-0.9-0.5-1.3
			l-0.2-0.5L15,53.7l-0.5-1.9l-0.4-1.1l-0.8-2.4L13,47.1l-0.7-2.3l-0.6-2l-0.5-1.3L10,38.2l-1.6-5l-1.7-5.1L6,26.2l-0.9-2.8
			l-0.5-1.3l-1-3l-0.5-1.6l-0.6-1.8l-0.6-2l-0.2-0.5l-0.1-0.4l-0.3-0.8c-0.5-1.6-0.5-3.4,0.3-4.9C2.5,5.3,4.4,4,6.4,3.8
			c0.3,0,0.5,0,0.7,0c1,0,2,0.3,2.9,0.7c1.1,0.5,2,1.5,2.6,2.6c0.3,0.5,0.5,1,0.6,1.5l0.1,0.2l1,2.9l0.6,1.8l0.8,2.4l0.4,1l1.3,3.9
			l0.9,2.8l0.7,2.1l1.1,3.3l0.4,1.1l0.4,1.2l0.6,1.9l0.2,0.6l0.2,0.5l0.7,2.1l1-2l0.3-0.6l0.6-1.3l0.9-1.8l1.3-2.5l1.3-2.6l0.9-1.9
			l0.3-0.5l1-1.9c1-2,3.2-3.4,5.5-3.4c0.1,0,0.1,0,0.2,0c1.3,0,2.5,0.5,3.6,1.2c0.5,0.4,1,0.9,1.5,1.5c0.3,0.4,0.5,0.6,0.6,1.1
			l0.2,0.5l0.9,1.8l1.5,3l0.7,1.5l2.2,4.4l0.3,0.6l0.6,1.4l1,1.9l0.7-2.1l0.3-0.7l0.3-0.7l0.6-1.8l0.5-1.5l1.5-4.4l0.8-2.3l0.9-2.6
			l1.3-3.9l0.4-1l0.5-1.7l0.8-2.5l0.6-2.5l0.2-0.5l0.1-0.4l0.1-0.4V7.3c0.3-0.5,0.6-0.9,0.9-1.3c0.8-0.9,1.7-1.7,2.8-2.4
			c1.5-1,3.3-1.7,5.1-2.2C68.5,1.2,69.7,1,71,1c0.4,0,0.6,0,1,0h0.3C72.4,0.9,72.5,0.9,72.6,0.9 M72.6,0c-0.2,0-0.4,0-0.5,0
			c-0.4,0-0.7,0-1.1,0c-1.3,0.1-2.5,0.3-3.7,0.5c-1.9,0.5-3.8,1.2-5.5,2.3c-1.1,0.7-2.2,1.6-3,2.6c-0.4,0.5-0.7,0.9-1,1.5
			c0,0.1-0.1,0.2-0.1,0.2c-0.1,0.3-0.2,0.5-0.3,0.7c-0.4,1-0.6,1.9-1,2.9c-0.5,1.4-0.9,2.8-1.4,4.2c-0.5,1.6-1.1,3.3-1.6,4.9
			c-0.5,1.6-1.1,3.4-1.6,5c-0.5,1.5-1,3-1.5,4.4c-0.4,1.1-0.7,2.2-1.1,3.3c-0.2,0.5-0.4,1-0.5,1.5l0,0c-0.4-0.6-0.6-1.3-1-2
			c-0.7-1.5-1.5-2.9-2.2-4.4c-0.7-1.5-1.5-3-2.2-4.4c-0.4-0.7-0.7-1.5-1.1-2.2c-0.2-0.5-0.5-0.8-0.7-1.2c-0.5-0.6-1-1.2-1.6-1.6
			c-1.2-0.9-2.6-1.4-4.2-1.4c-0.1,0-0.2,0-0.2,0c-2.6,0.1-5,1.6-6.2,4c-0.5,0.8-0.8,1.6-1.3,2.4c-0.7,1.5-1.5,3-2.3,4.4
			c-0.7,1.5-1.5,2.9-2.2,4.3c-0.3,0.6-0.6,1.3-0.9,1.9c-0.1-0.4-0.3-0.8-0.4-1.2c-0.4-1-0.7-2.1-1-3.1c-0.5-1.5-1-2.9-1.5-4.4
			c-0.5-1.6-1.1-3.3-1.6-5c-0.5-1.6-1.1-3.3-1.6-4.9c-0.5-1.5-0.9-2.8-1.5-4.3c-0.4-1-0.6-1.9-1-2.9c-0.2-0.6-0.5-1.3-0.7-1.9
			c-0.6-1-1.6-2-2.9-2.7c-1-0.5-2.2-0.8-3.3-0.8c-0.3,0-0.5,0-0.8,0.1C4,3.2,1.9,4.6,0.8,6.8c-0.9,1.7-1,3.7-0.4,5.5
			c0.1,0.4,0.3,0.8,0.4,1.2C1,14.3,1.3,15.1,1.6,16c0.4,1.2,0.8,2.4,1.2,3.4c0.5,1.5,0.9,2.8,1.5,4.3c0.5,1.5,1.1,3.2,1.5,4.7
			c0.6,1.7,1.2,3.4,1.7,5.1c0.5,1.6,1.1,3.4,1.6,5s1.1,3.2,1.6,4.8c0.5,1.5,0.9,2.8,1.5,4.3c0.4,1.2,0.8,2.4,1.2,3.5
			c0.3,0.8,0.5,1.6,0.8,2.4c0.2,0.4,0.3,0.8,0.5,1.3c0.2,0.5,0.4,1,0.6,1.5c0.7,1.4,1.9,2.4,3.3,3.1c0.9,0.5,2,0.6,3,0.6
			c0.5,0,1-0.1,1.5-0.2c1.5-0.4,2.9-1.2,3.9-2.4c0.6-0.7,1.1-1.6,1.5-2.5c0.6-1.2,1.2-2.4,1.8-3.6c0.8-1.5,1.5-3.1,2.4-4.7
			c0.7-1.4,1.4-2.8,2.1-4.2c0.4-0.7,0.7-1.4,1-2.1l0,0c0.3,0.5,0.5,1.1,0.8,1.7c0.6,1.4,1.4,2.6,2,4c0.8,1.5,1.5,3.2,2.4,4.7
			c0.6,1.3,1.3,2.5,1.9,3.8c0.4,0.7,0.6,1.5,1.1,2.1c0.7,1.2,1.7,2.1,3,2.7c1,0.5,2.1,0.7,3.2,0.7c0.4,0,0.7,0,1.1-0.1
			c2.5-0.4,4.5-2.1,5.5-4.4c0.2-0.4,0.3-0.8,0.4-1.2c0.1-0.3,0.2-0.6,0.3-0.9c0.4-1.2,0.7-2.3,1.2-3.4c0.5-1.5,1.1-3.2,1.5-4.7
			c0.5-1.6,1.1-3.3,1.6-5c0.5-1.4,0.9-2.7,1.4-4.1c0.3-0.7,0.5-1.4,0.7-2.1v-0.1c0.3,0.3,0.5,0.5,0.7,0.7c0.6,0.6,1.4,1.4,2,2
			c1,1,1.9,1.9,2.9,2.9c1.2,1.2,2.4,2.4,3.5,3.4c1.3,1.3,2.5,2.4,3.7,3.7c1.2,1.2,2.5,2.4,3.6,3.6c1.1,1.1,2.2,2.2,3.3,3.3
			c0.8,0.8,1.6,1.6,2.5,2.4c0.5,0.5,0.9,0.9,1.4,1.4c0.1,0.1,0.2,0.2,0.4,0.4c1,1,2.3,1.6,3.6,1.9c0.5,0.1,0.9,0.1,1.4,0.1
			c2,0,4-0.8,5.4-2.4c1.7-1.9,2.3-4.6,1.5-7.1c-0.4-1-0.9-2-1.7-2.7c-0.4-0.4-0.7-0.6-1-1C96,46,95.2,45,94.3,44.2
			c-1.2-1.2-2.4-2.4-3.5-3.5c-1.3-1.3-2.5-2.4-3.7-3.7c-1.1-1.1-2.2-2.2-3.3-3.3c-0.7-0.7-1.4-1.4-2.1-2.1c-0.2-0.2-0.3-0.3-0.5-0.5
			c2-1.4,3.5-3.2,4.7-5.3c0.9-1.7,1.6-3.5,2-5.4c0.3-1.1,0.4-2.3,0.5-3.4c0-0.5,0-0.9-0.1-1.4c-0.1-1.2-0.3-2.3-0.6-3.4
			c-0.5-1.9-1.4-3.7-2.5-5.3c-1-1.4-2.2-2.5-3.5-3.5c-1.2-0.8-2.5-1.5-3.7-2.1c-1-0.5-2.1-0.7-3.1-1c-0.5-0.3-1.1-0.4-1.6-0.5H73
			C72.9,0,72.7,0,72.6,0L72.6,0z"/>
	</g>
	<g>
		<path fill="#FF3333" d="M98.4,48.2L98.4,48.2L98.4,48.2z"/>
	</g>
	<g>
		<path fill="#FF3333" d="M98.4,48.2L98.4,48.2L98.4,48.2z"/>
	</g>
	<g>
		<path fill="#FF3333" d="M98.4,48.2L98.4,48.2L98.4,48.2z"/>
	</g>
</g>
</svg>
